<svg width="512" height="512" viewBox="0 0 512 512" fill="none" xmlns="http://www.w3.org/2000/svg">
  <!-- Smooth background with gradient -->
  <rect width="512" height="512" rx="112" fill="url(#bg-gradient)" />
  
  <!-- Outer glow/connection nodes -->
  <circle cx="360" cy="140" r="32" fill="#4B8CFF" opacity="0.6" filter="url(#glow)"/>
  
  <!-- Abstract B / Connection shape -->
  <path d="M160 140C160 140 240 140 260 140C315.228 140 360 184.772 360 240C360 274.604 342.43 305.105 315.65 323.003C342.341 339.814 360 369.839 360 404C360 459.228 315.228 504 260 504C204.772 504 160 459.228 160 404L160 140Z" 
        stroke="white" stroke-width="48" stroke-linecap="round" stroke-linejoin="round"/>
  
  <!-- Inner connection line -->
  <path d="M160 272H260" stroke="white" stroke-width="48" stroke-linecap="round"/>
  
  <!-- Top Node -->
  <circle cx="360" cy="140" r="28" fill="#FFF"/>

  <defs>
    <linearGradient id="bg-gradient" x1="0" y1="0" x2="512" y2="512" gradientUnits="userSpaceOnUse">
      <stop offset="0%" stop-color="#145AFF" />
      <stop offset="100%" stop-color="#092873" />
    </linearGradient>
    <filter id="glow" x="288" y="68" width="144" height="144" filterUnits="userSpaceOnUse" color-interpolation-filters="sRGB">
      <feGaussianBlur stdDeviation="16" result="effect1_foregroundBlur"/>
    </filter>
  </defs>
</svg>
